HIERARCHY
ROOT Hips
{
	OFFSET 0.000000 0.000000 0.000000
	CHANNELS 6 Xposition Yposition Zposition Xrotation Yrotation Zrotation
	JOINT LeftUpLeg_virtual
	{
		OFFSET 0.000000 0.000000 0.000000
		CHANNELS 3 Xrotation Yrotation Zrotation
		JOINT LeftUpLeg
		{
			OFFSET 13.026900 -6.336304 -1.092800
			CHANNELS 3 Xrotation Yrotation Zrotation
			JOINT LeftLeg
			{
				OFFSET 0.524474 -46.096886 9.782700
				CHANNELS 3 Xrotation Yrotation Zrotation
				JOINT LeftFoot
				{
					OFFSET -0.524474 -53.427422 -12.948200
					CHANNELS 3 Xrotation Yrotation Zrotation
					JOINT LeftToeBase
					{
						OFFSET 0.192200 -14.009700 16.364100
						CHANNELS 3 Xrotation Yrotation Zrotation
						JOINT LeftToe_End
						{
							OFFSET -1.784700 -0.561700 9.474800
							CHANNELS 3 Xrotation Yrotation Zrotation
							End Site
							{
								OFFSET 0 0 0
							}
						}
					}
				}
			}
		}
	}
	JOINT RightUpLeg_virtual
	{
		OFFSET 0.000000 0.000000 0.000000
		CHANNELS 3 Xrotation Yrotation Zrotation
		JOINT RightUpLeg
		{
			OFFSET -12.883000 -6.336304 -1.092800
			CHANNELS 3 Xrotation Yrotation Zrotation
			JOINT RightLeg
			{
				OFFSET -0.524587 -46.096825 9.782800
				CHANNELS 3 Xrotation Yrotation Zrotation
				JOINT RightFoot
				{
					OFFSET 0.524587 -53.427383 -12.948300
					CHANNELS 3 Xrotation Yrotation Zrotation
					JOINT RightToeBase
					{
						OFFSET -0.192200 -14.009700 16.364100
						CHANNELS 3 Xrotation Yrotation Zrotation
						JOINT RightToe_End
						{
							OFFSET 1.784700 -0.561700 9.474800
							CHANNELS 3 Xrotation Yrotation Zrotation
							End Site
							{
								OFFSET 0 0 0
							}
						}
					}
				}
			}
		}
	}
	JOINT Spine_virtual
	{
		OFFSET 0.000000 0.000000 0.000000
		CHANNELS 3 Xrotation Yrotation Zrotation
		JOINT Spine
		{
			OFFSET 0.072000 7.257294 -0.789700
			CHANNELS 3 Xrotation Yrotation Zrotation
			JOINT Spine1
			{
				OFFSET 0.000000 12.508769 -0.658067
				CHANNELS 3 Xrotation Yrotation Zrotation
				JOINT Spine1_split
				{
					OFFSET 0.000000 12.508769 -0.658067
					CHANNELS 3 Xrotation Yrotation Zrotation
					JOINT Spine2
					{
						OFFSET 0.000000 12.508769 -0.658067
						CHANNELS 3 Xrotation Yrotation Zrotation
						JOINT Neck_virtual
						{
							OFFSET 0.000000 0.000000 0.000000
							CHANNELS 3 Xrotation Yrotation Zrotation
							JOINT Neck
							{
								OFFSET 0.000000 14.033295 7.520400
								CHANNELS 3 Xrotation Yrotation Zrotation
								JOINT Head
								{
									OFFSET 0.000000 8.198502 5.703100
									CHANNELS 3 Xrotation Yrotation Zrotation
									JOINT HeadTop_End
									{
										OFFSET 0.000000 17.760803 13.332701
										CHANNELS 3 Xrotation Yrotation Zrotation
										End Site
										{
											OFFSET 0 0 0
										}
									}
								}
							}
						}
						JOINT LeftShoulder_virtual
						{
							OFFSET 0.000000 0.000000 0.000000
							CHANNELS 3 Xrotation Yrotation Zrotation
							JOINT LeftShoulder
							{
								OFFSET 6.292450 5.785301 -0.669000
								CHANNELS 3 Xrotation Yrotation Zrotation
								JOINT LeftShoulder_split
								{
									OFFSET 6.292450 5.785301 -0.669000
									CHANNELS 3 Xrotation Yrotation Zrotation
									JOINT LeftArm
									{
										OFFSET 13.907140 -6.093903 1.965100
										CHANNELS 3 Xrotation Yrotation Zrotation
										JOINT LeftForeArm
										{
											OFFSET 34.140198 0.000000 0.000000
											CHANNELS 3 Xrotation Yrotation Zrotation
											JOINT LeftHand
											{
												OFFSET 40.960209 0.000000 0.000000
												CHANNELS 3 Xrotation Yrotation Zrotation
												End Site
												{
													OFFSET 0 0 0
												}
											}
										}
									}
								}
							}
						}
						JOINT RightShoulder_virtual
						{
							OFFSET 0.000000 0.000000 0.000000
							CHANNELS 3 Xrotation Yrotation Zrotation
							JOINT RightShoulder
							{
								OFFSET -6.292450 5.785301 -0.669000
								CHANNELS 3 Xrotation Yrotation Zrotation
								JOINT RightShoulder_split
								{
									OFFSET -6.292450 5.785301 -0.669000
									CHANNELS 3 Xrotation Yrotation Zrotation
									JOINT RightArm
									{
										OFFSET -13.907140 -6.093903 1.965100
										CHANNELS 3 Xrotation Yrotation Zrotation
										JOINT RightForeArm
										{
											OFFSET -34.140198 0.000000 0.000000
											CHANNELS 3 Xrotation Yrotation Zrotation
											JOINT RightHand
											{
												OFFSET -40.960209 0.000000 0.000000
												CHANNELS 3 Xrotation Yrotation Zrotation
												End Site
												{
													OFFSET 0 0 0
												}
											}
										}
									}
								}
							}
						}
					}
				}
			}
		}
	}
}
MOTION
Frames: 5
Frame Time: 0.03333333
-27.896954 162.634552 41.146049 0.000000 0.000000 0.000000 1.980150 -19.263034 0.221051 -22.382057 9.083949 4.585799 36.191622 7.968853 3.946082 26.870688 -0.418723 -2.847867 -0.000019 0.000001 -0.000022 0.000000 0.000000 0.000000 1.980150 -19.263034 0.221051 -3.850754 -7.412225 -3.781521 22.752173 -20.143840 4.975545 32.621629 -2.945341 -0.952720 -0.254728 0.048034 -0.222043 0.000000 0.000000 0.000000 1.980150 -19.263034 0.221051 -1.418790 -0.227973 0.908183 -2.849546 -0.229106 -1.624431 0.000000 0.000000 0.000000 0.000000 0.000000 0.000000 -2.849544 -0.229105 -1.624431 -27.415812 2.071721 -0.405984 -8.884819 0.776539 3.209524 0.000000 0.000000 0.000000 -2.849544 -0.229105 -1.624431 4.781804 6.071382 25.311125 0.000000 0.000000 0.000000 -58.312767 -25.193199 16.875543 -25.969919 -55.829584 7.584392 0.000000 0.000000 0.000000 -2.849544 -0.229105 -1.624431 -3.148149 -6.622060 -28.188288 0.000000 0.000000 0.000000 -74.921192 31.517256 20.078719 -28.646420 45.441091 -7.798847 0.000000 0.000000 0.000000 
-28.154118 159.940613 42.611744 0.000000 0.000000 0.000000 1.243163 -17.548515 -0.314616 -23.446830 8.297567 4.578648 37.749117 11.356624 2.836569 32.349514 0.149013 0.201559 -0.000033 0.000000 -0.000020 0.000000 0.000000 0.000000 1.243163 -17.548515 -0.314616 -6.070271 -7.305855 -3.720958 24.174754 -18.226414 3.155897 37.386724 -1.284563 -1.592269 -0.000073 0.000006 0.000059 0.000000 0.000000 0.000000 1.243163 -17.548515 -0.314616 -1.640188 -0.231713 0.985657 -3.292606 -0.278831 -1.303055 0.000000 0.000000 0.000000 0.000000 0.000000 0.000000 -3.292605 -0.278820 -1.303055 -24.829280 1.898691 -2.852156 -11.555615 -0.586096 4.627743 0.000000 0.000000 0.000000 -3.292605 -0.278820 -1.303055 6.717991 6.329312 27.810083 0.000000 0.000000 0.000000 -55.092582 -13.574169 10.508938 -20.928099 -71.280162 15.947269 0.000000 0.000000 0.000000 -3.292605 -0.278820 -1.303055 -0.962622 -3.617263 -26.818760 0.000000 0.000000 0.000000 -63.904274 30.681138 10.710922 -28.415914 46.120402 -0.431021 0.000000 0.000000 0.000000 
-28.446293 156.986694 44.142059 0.000000 0.000000 0.000000 0.343251 -15.237901 -0.857686 -23.855301 7.650450 4.930164 39.232791 13.741903 1.161518 35.679597 1.208234 3.424782 -0.000029 -0.000002 -0.000019 0.000000 0.000000 0.000000 0.343251 -15.237901 -0.857686 -7.429631 -8.127212 -3.682999 25.504780 -14.880119 1.958081 40.703102 -0.746440 -0.088333 -0.000047 -0.000016 0.000080 0.000000 0.000000 0.000000 0.343251 -15.237901 -0.857686 -2.030620 -0.156694 1.193787 -4.067670 -0.134288 -0.708513 0.000000 0.000000 0.000000 0.000000 0.000000 0.000000 -4.067668 -0.134280 -0.708512 -23.990380 2.384003 -5.202906 -10.704734 -2.187142 5.398439 0.000000 0.000000 0.000000 -4.067668 -0.134280 -0.708512 7.397601 6.276444 30.124778 0.000000 0.000000 0.000000 -50.546221 -14.728033 7.822471 -23.333285 -64.851676 15.435934 0.000000 0.000000 0.000000 -4.067668 -0.134280 -0.708512 0.236021 -5.224690 -28.113366 0.000000 0.000000 0.000000 -56.133777 28.750056 7.183383 -28.925663 47.084780 12.393198 0.000000 0.000000 0.000000 
-28.832153 154.391571 45.824501 0.000000 0.000000 0.000000 -0.461194 -12.488848 -1.269857 -23.891126 7.473402 4.037998 39.793929 15.141090 1.876540 36.910093 1.641477 4.982328 0.000005 0.000001 -0.000021 0.000000 0.000000 0.000000 -0.461194 -12.488848 -1.269857 -7.800515 -8.180963 -3.447298 26.551216 -14.179545 1.301326 42.364590 -0.006574 1.783772 -0.000048 -0.000005 0.000070 0.000000 0.000000 0.000000 -0.461194 -12.488848 -1.269857 -2.518009 -0.128021 1.388293 -5.040000 -0.061267 -0.169479 0.000000 0.000000 0.000000 0.000000 0.000000 0.000000 -5.040000 -0.061265 -0.169479 -23.827146 1.903166 -5.577702 -8.470725 -2.059544 4.806336 0.000000 0.000000 0.000000 -5.040000 -0.061265 -0.169479 7.348064 6.827392 32.197652 0.000000 0.000000 0.000000 -50.084374 -16.986052 5.313348 -25.169425 -57.653681 7.865957 0.000000 0.000000 0.000000 -5.040000 -0.061265 -0.169479 -1.010194 -6.529068 -31.967860 0.000000 0.000000 0.000000 -55.410832 34.083163 9.550122 -24.192421 35.946927 6.614251 0.000000 0.000000 0.000000 
-29.320013 152.451935 47.672638 0.000000 0.000000 0.000000 -0.953487 -9.650510 -1.467097 -23.821746 8.307411 4.491210 40.270792 14.405023 1.052516 36.035965 2.011747 6.811804 0.000023 0.000005 -0.000021 0.000000 0.000000 0.000000 -0.953487 -9.650510 -1.467097 -7.532369 -8.029199 -3.768889 27.350567 -14.874892 2.339188 42.735633 0.207343 2.582052 -0.000046 -0.000016 0.000088 0.000000 0.000000 0.000000 -0.953487 -9.650510 -1.467097 -3.028109 -0.122406 1.456810 -6.059362 -0.019088 0.004834 0.000000 0.000000 0.000000 0.000000 0.000000 0.000000 -6.059355 -0.019084 0.004834 -23.872459 1.354873 -4.509964 -6.634655 -1.879436 3.543042 0.000000 0.000000 0.000000 -6.059355 -0.019084 0.004834 6.152874 8.048889 34.407686 0.000000 0.000000 0.000000 -51.875136 -22.068698 0.441638 -23.786808 -48.661867 4.291008 0.000000 0.000000 0.000000 -6.059355 -0.019084 0.004834 -0.117880 -7.940963 -34.996510 0.000000 0.000000 0.000000 -60.812733 37.491848 15.540530 -22.381157 26.520373 1.242615 0.000000 0.000000 0.000000 
